<?xml version="1.0" encoding="UTF-8"?><!DOCTYPE svg PUBLIC "-//W3C//DTD SVG 1.1//EN" "http://www.w3.org/Graphics/SVG/1.1/DTD/svg11.dtd"><svg xmlns="http://www.w3.org/2000/svg" xmlns:xlink="http://www.w3.org/1999/xlink"><symbol id="icon-catalog"><g transform="translate(-1433 -50)" fill="#fff"><circle cx="2.5" cy="2.5" r="2.5" transform="translate(1433 50)"/><circle cx="2.5" cy="2.5" r="2.5" transform="translate(1442 50)"/><circle cx="2.5" cy="2.5" r="2.5" transform="translate(1451 50)"/><circle cx="2.5" cy="2.5" r="2.5" transform="translate(1433 59)"/><circle cx="2.5" cy="2.5" r="2.5" transform="translate(1442 59)"/><circle cx="2.5" cy="2.5" r="2.5" transform="translate(1451 59)"/><circle cx="2.5" cy="2.5" r="2.5" transform="translate(1433 68)"/><circle cx="2.5" cy="2.5" r="2.5" transform="translate(1442 68)"/><circle cx="2.5" cy="2.5" r="2.5" transform="translate(1451 68)"/></g></symbol><symbol id="icon-drop-down"><path d="M1.321 0l4.3 4.291L9.922 0l1.321 1.321-5.621 5.621L0 1.321z" fill="#fff"/></symbol><symbol id="icon-phone"><path d="M18.818 13.7a12.659 12.659 0 01-3.905-.62 1.081 1.081 0 00-1.117.266l-1.737 2.179a16.8 16.8 0 01-7.622-7.556l2.156-1.84A1.129 1.129 0 006.859 5a12.338 12.338 0 01-.62-3.9A1.1 1.1 0 005.144 0H1.316C.719 0 0 .266 0 1.1a18.975 18.975 0 0018.818 18.813 1.161 1.161 0 001.1-1.305v-3.817a1.1 1.1 0 00-1.1-1.091z" fill="#fff"/></symbol><symbol id="icon-search"><path d="M12.5 11h-.79l-.28-.27a6.51 6.51 0 10-.7.7l.27.28v.79l5 4.99L17.49 16zm-6 0A4.5 4.5 0 1111 6.5 4.494 4.494 0 016.5 11z" fill="#fff"/></symbol></svg>